<?xml version="1.0" standalone="no"?><!DOCTYPE svg PUBLIC "-//W3C//DTD SVG 1.1//EN" "http://www.w3.org/Graphics/SVG/1.1/DTD/svg11.dtd"><svg t="1618591864951" class="icon" viewBox="0 0 1024 1024" version="1.1" xmlns="http://www.w3.org/2000/svg" p-id="10986" xmlns:xlink="http://www.w3.org/1999/xlink" width="200" height="200"><defs><style type="text/css"></style></defs><path d="M881.6 553.1c-66.3-108.1-168.8-164-307.8-167-139.1-3-240 51-314.8 153.4-12 16.5-11.9 9.5-0.6 27.5 67.2 107.5 168.8 164 307.8 167 139.1 3 243.9-48.3 314.8-153.4 5.7-8.5 5.9-18.6 0.6-27.5zM567 695.6" fill="#6698cb" p-id="10987" data-spm-anchor-id="a313x.7781069.0.i6" class="selected"></path><path d="M940.7 529.7c-90-153.5-226-230.7-408.4-230.7-182.5 0-318.4 77.2-408.4 230.8-7.3 12.5-7.3 27.1 0 39.6 90 153.5 226 230.7 408.4 230.7 182.5 0 318.4-77.2 408.4-230.8 7.3-12.5 7.3-26.9 0-39.6z m-408.4 215c-153.1 0-265.2-62.9-344.3-195.2 79.1-132.3 191.2-195.2 344.3-195.2 153.1 0 265.2 62.9 344.3 195.2-78.9 132.4-191.1 195.2-344.3 195.2z m0 0" fill="#595857" p-id="10988"></path><path d="M528.5 414.3c-92.3 0-167.1 60.6-167.1 135.3 0 74.7 74.8 135.3 167.1 135.3s167.1-60.6 167.1-135.3c0-74.8-74.8-135.3-167.1-135.3z m0 221.3c-58.8 0-106.3-38.5-106.3-86.1 0-47.6 47.6-86.1 106.3-86.1 58.8 0 106.3 38.5 106.3 86.1 0 47.6-47.5 86.1-106.3 86.1z m0 0" fill="#595857" p-id="10989"></path></svg>