<?xml version="1.0" standalone="no"?><!DOCTYPE svg PUBLIC "-//W3C//DTD SVG 1.1//EN" "http://www.w3.org/Graphics/SVG/1.1/DTD/svg11.dtd"><svg t="1619752179483" class="icon" viewBox="0 0 1126 1024" version="1.1" xmlns="http://www.w3.org/2000/svg" p-id="11149" xmlns:xlink="http://www.w3.org/1999/xlink" width="219.921875" height="200"><defs><style type="text/css"></style></defs><path d="M1076.875776 998.4H49.803776A49.152 49.152 0 0 1 0.139776 950.016V148.736a49.408 49.408 0 0 1 49.664-49.152h1027.072A49.408 49.408 0 0 1 1126.539776 148.736v801.28A49.408 49.408 0 0 1 1076.875776 998.4z" fill="#FFE9B8" p-id="11150"></path><path d="M563.339776 336.64H0.139776V51.2a47.616 47.616 0 0 1 45.056-51.2H435.339776a51.2 51.2 0 0 1 47.616 39.424z" fill="#FFC112" p-id="11151"></path><path d="M1081.483776 1024H45.195776A47.616 47.616 0 0 1 0.139776 972.8V250.368a47.616 47.616 0 0 1 45.056-49.92h1036.288A47.616 47.616 0 0 1 1126.539776 250.368v723.712A47.872 47.872 0 0 1 1081.483776 1024z" fill="#FFD741" p-id="11152"></path></svg>