<?xml version="1.0" standalone="no"?><!DOCTYPE svg PUBLIC "-//W3C//DTD SVG 1.1//EN" "http://www.w3.org/Graphics/SVG/1.1/DTD/svg11.dtd"><svg t="1618509568302" class="icon" viewBox="0 0 1024 1024" version="1.1" xmlns="http://www.w3.org/2000/svg" p-id="10605" xmlns:xlink="http://www.w3.org/1999/xlink" width="200" height="200"><defs><style type="text/css"></style></defs><path d="M511.966 0C229.239 0 0 229.239 0 512.034 0 738.236 146.705 930.133 350.174 997.82c25.6 4.71 34.918-11.094 34.918-24.679 0-12.151-0.409-44.339-0.682-87.074-142.405 30.959-172.476-68.642-172.476-68.642-23.279-59.119-56.832-74.888-56.832-74.888-46.49-31.744 3.516-31.13 3.516-31.13 51.37 3.618 78.438 52.77 78.438 52.77 45.67 78.268 119.808 55.672 148.992 42.564 4.642-33.109 17.886-55.671 32.495-68.471-113.698-12.903-233.199-56.832-233.199-253.031 0-55.91 19.934-101.614 52.702-137.386-5.291-12.971-22.835-65.024 5.017-135.51 0 0 42.974-13.755 140.8 52.498a490.07 490.07 0 0 1 128.171-17.238 490.836 490.836 0 0 1 128.171 17.238c97.758-66.253 140.663-52.498 140.663-52.498 27.921 70.486 10.343 122.539 5.086 135.51 32.836 35.772 52.634 81.476 52.634 137.386 0 196.677-119.706 239.958-233.779 252.655 18.397 15.804 34.781 47.036 34.781 94.789 0 68.471-0.648 123.699-0.648 140.458 0 13.688 9.25 29.628 35.225 24.645C877.431 929.929 1024 738.167 1024 512.034 1024 229.239 794.726 0 511.966 0" fill="#FF6666" p-id="10606"></path></svg>