<?xml version="1.0" standalone="no"?><!DOCTYPE svg PUBLIC "-//W3C//DTD SVG 1.1//EN" "http://www.w3.org/Graphics/SVG/1.1/DTD/svg11.dtd"><svg t="1619752161361" class="icon" viewBox="0 0 1024 1024" version="1.1" xmlns="http://www.w3.org/2000/svg" p-id="10526" xmlns:xlink="http://www.w3.org/1999/xlink" width="200" height="200"><defs><style type="text/css"></style></defs><path d="M0 0m93.090909 0l837.818182 0q93.090909 0 93.090909 93.090909l0 837.818182q0 93.090909-93.090909 93.090909l-837.818182 0q-93.090909 0-93.090909-93.090909l0-837.818182q0-93.090909 93.090909-93.090909Z" fill="#FCCC44" p-id="10527"></path><path d="M474.259957 732.347425m-20.570379-20.570379l-123.422274-123.422275q-20.570379-20.570379 0-41.140758l0 0q20.570379-20.570379 41.140758 0l123.422274 123.422275q20.570379 20.570379 0 41.140758l0 0q-20.570379 20.570379-41.140758 0Z" fill="#FFFFFF" p-id="10528"></path><path d="M116.674487 760.712755m20.570379-20.570379l190.893118-190.893118q20.570379-20.570379 41.140758 0l0 0q20.570379 20.570379 0 41.140758l-190.893118 190.893118q-20.570379 20.570379-41.140758 0l0 0q-20.570379-20.570379 0-41.140758Z" fill="#FFFFFF" p-id="10529"></path><path d="M708.096739 430.492437m14.545455 25.193466l168.727272 292.244209q14.545455 25.193466-10.648011 39.738921l0 0q-25.193466 14.545455-39.738921-10.648012l-168.727273-292.244209q-14.545455-25.193466 10.648012-39.738921l0 0q25.193466-14.545455 39.738921 10.648012Z" fill="#FFFFFF" p-id="10530"></path><path d="M365.862441 760.948259m20.570379-20.570379l290.453752-290.453752q20.570379-20.570379 41.140759 0l0 0q20.570379 20.570379 0 41.140758l-290.453753 290.453752q-20.570379 20.570379-41.140758 0l0 0q-20.570379-20.570379 0-41.140758Z" fill="#FFFFFF" p-id="10531"></path><path d="M209.454545 209.454545m-69.818181 0a69.818182 69.818182 0 1 0 139.636363 0 69.818182 69.818182 0 1 0-139.636363 0Z" fill="#FFFFFF" p-id="10532"></path></svg>