<?xml version="1.0" standalone="no"?><!DOCTYPE svg PUBLIC "-//W3C//DTD SVG 1.1//EN" "http://www.w3.org/Graphics/SVG/1.1/DTD/svg11.dtd"><svg t="1619085892935" class="icon" viewBox="0 0 1024 1024" version="1.1" xmlns="http://www.w3.org/2000/svg" p-id="19214" xmlns:xlink="http://www.w3.org/1999/xlink" width="200" height="200"><defs><style type="text/css"></style></defs><path d="M951.296 317.454c-22.822-129.508-143.21-225.54-274.74-204.615-48.543 7.72-86.335 44.284-121.14 76.442-3.267 3.02-31.608 28.66-39.08 46.064C401.007 94.291 147.374 81.375 78.622 275.734 31.538 408.82 104.176 550.797 185.887 652.69c44.962 56.072 99.066 103.34 151.82 151.795 44.758 41.117 93.07 84.533 151.474 104.308 9.63 8.354 21.592 12.622 33.57 16.683 2.468 0.833 4.59 0.638 6.346-0.162 2.062 0.015 4.252-0.501 6.49-1.782 57.231-32.778 107.034-77.847 156.074-121.596 51.024-45.524 99.385-94.136 142.589-147.207 76.999-94.59 139.132-211.938 117.046-337.275z m-29.054-4.115c-0.644 0.504-1.256 1.086-1.783 1.845-53.006 75.803-107.835 149.94-163.54 223.49 26.735-39.99 53.218-80.154 79.354-120.53 18.683-28.854 37.352-57.723 55.229-87.083 7.832-12.872 17.435-26.325 23.952-40.475a275.87 275.87 0 0 1 6.788 22.753zM804.2 155.278c-81.447 101.12-140.086 218.796-217.009 323.407-18.352 24.956-37.55 49.8-56.85 74.79 37.298-53.319 74.034-107.002 110.309-160.781 26.834-39.78 47.097-83.365 69.79-125.558 20.472-38.048 44.02-93.022 81.833-117.477 4.054 1.72 8.022 3.625 11.927 5.619z m-360.49 47.116c-16.913 15.092-32.321 32.555-46.589 51.398 13.264-18.725 26.481-37.968 36.742-58.038a266.373 266.373 0 0 1 9.847 6.64z m-60.924-32.47c5.173 1.931 10.26 4.094 15.305 6.343-18.146 14.56-32.822 42.863-43.871 59.244-23.843 35.339-44.819 72.568-69.097 107.593-14.194 20.475-31.236 41.029-48.543 62.081a3341.637 3341.637 0 0 0 45.735-70.896c32.382-51.587 59.176-112.778 98.997-159.032 1.336-1.544 1.73-3.505 1.474-5.334z m-106.58-15.78c0.197-0.012 0.392-0.01 0.597-0.022-11.042 6.815-19.966 19.785-26.964 28.75-4.035 5.166-7.9 10.454-11.705 15.796 7.27-13.923 14.045-27.982 19.802-42.195 6.015-0.998 12.085-1.84 18.27-2.328z m-177.97 148.14c9.677-41.761 31.732-76.278 61.685-101.569-13.034 23.186-26.76 45.984-40.602 68.715-6.95 11.413-14.364 23.064-21.518 34.97 0.157-0.707 0.271-1.411 0.435-2.116z m-6.402 44.005c12.98-23.368 25.275-47.251 39.13-70.053 18.025-29.677 35.84-59.171 49.926-90.837 5.405-3.429 11.047-6.521 16.799-9.427-22.454 27.052-38.296 62.676-53.486 92.209-17.192 33.41-33.692 66.77-52.925 98.815-0.061-6.886 0.108-13.785 0.556-20.707z m0.047 36.783c22.779-31.356 40.249-66.435 58.092-100.72 21.544-41.398 46.664-77.928 71.83-116.679 6.179-2.182 12.546-3.99 18.996-5.615-26.497 40.626-46.543 87.225-70.53 129.01-23.383 40.748-49.254 79.448-75.79 118.001-1.14-7.964-2.09-15.957-2.598-23.997z m4.639 36.794c18.866-22.03 35.766-45.889 51.648-70.356-16.438 29.912-32.293 60.173-47.158 90.751-1.682-6.764-3.23-13.556-4.49-20.395z m8.117 34.095c33.318-46.171 57.331-101.19 85.427-150.335 17.708-30.98 36.107-61.577 56.118-91.134 12.486-18.44 27.188-41.75 47.736-52.321 2.664-1.37 3.241-4.224 2.428-6.64 5.052 0.035 10.104 0.235 15.137 0.588-40.14 50.472-72.855 108.331-106.6 163.114-32.07 52.053-64.1 104.508-93.172 158.369-2.551-7.166-4.958-14.371-7.074-21.64z m11.204 32.789c32.626-50.436 63.476-102.091 95.404-152.96 36.775-58.582 78.68-115.118 112.452-175.433 0.542-0.974 0.68-1.97 0.659-2.946 4.848 0.596 9.677 1.369 14.484 2.252-74.4 113.516-151.108 227.816-215.255 347.587-2.713-6.123-5.324-12.281-7.744-18.5z m12.606 29.126c77.771-116.548 151.318-236.43 226.451-354.69 5.751 1.44 11.441 3.139 17.083 4.97-14.756 7.02-24.041 28.093-31.69 40.842-18.038 30.066-35.691 60.375-53.615 90.508-47.384 79.657-99.188 156.37-150.708 233.35-2.563-4.97-5.134-9.937-7.521-14.98zM140.62 539.7c7.425-9.59 14.736-19.27 21.98-28.994-6.478 13.153-11.753 26.668-15.421 40.612-2.218-3.86-4.443-7.712-6.559-11.618z m13.794 23.845c32.07-77.548 90.181-138.2 139.585-205.12 22.014-29.825 40.663-62.235 60.595-93.467 10.327-16.178 20.988-32.131 32.097-47.78 7.833-11.044 19.53-21.562 27.058-33.264 2.415 1.272 4.754 2.662 7.128 4.005-18.31 24.731-33.766 52.343-50.896 77.669-23.424 34.63-47.533 68.8-71.343 103.164-47.234 68.19-95.742 136.82-134.316 210.468-3.37-5.176-6.692-10.39-9.908-15.675z m15.72 24.433c42.976-69.158 87.958-136.645 134.968-203.169 23.315-33.007 46.678-65.98 69.634-99.239-23.39 35.427-44.007 73.123-64.168 106.99-42.026 70.603-83.726 140.651-132.344 206.913-2.712-3.82-5.459-7.605-8.09-11.495z m14.092 20.005c53.75-59.504 94.028-130.815 135.077-199.215 21.118-35.186 42.527-70.182 65.408-104.255 21.914-32.633 47.913-61.532 71.717-92.49 3.6 2.878 7.08 5.903 10.524 8.964-44.962 63.022-86.914 128.475-130.214 192.638-47.247 70.021-94.887 140.136-138.846 212.303-4.626-5.898-9.203-11.853-13.666-17.945z m19.802 25.67c47.797-67.03 94.25-135.123 140.807-203.018 45.018-65.655 92.162-130.69 133.66-198.715 1.852 1.861 3.566 3.856 5.357 5.767-51.093 59.239-88.276 130.89-126.64 198.444-42.053 74.065-85.61 146.738-142.896 209.927-3.452-4.088-6.897-8.204-10.288-12.404z m34.064 39.146c-3.106-3.344-6.239-6.666-9.297-10.063-2.516-2.794-4.984-5.688-7.474-8.545 58.288-55.268 100.53-124.632 140.78-193.668 42.093-72.189 83.067-143.24 132.755-210.28 2.49 3.04 5.025 6.033 7.345 9.203a13.77 13.77 0 0 0 4.768 4.107c-42.664 52.31-80.254 108.689-116.549 165.607-51.397 80.596-103.214 161.645-152.328 243.64z m6.782 7.291c56.858-69.213 102.056-149.405 149.765-224.96 50.99-80.743 104.41-159.984 166.821-232.448 1.58-1.834 2.016-3.884 1.73-5.775 4.143-3.91 8.36-7.748 12.592-11.567-29.572 41.76-55.038 86.446-81.277 130.33-73.452 122.858-173.934 227.872-236.997 357.252-4.203-4.28-8.497-8.476-12.634-12.832z m18.995 19.286C335.03 582.578 426.94 479.728 497.36 362.783c24.055-39.948 46.569-80.778 71.283-120.337 18.254-29.219 39.786-71.072 72.325-86.798 0.86-0.422 1.402-0.99 1.817-1.608 2.55-1.38 5.127-2.689 7.744-3.926-28.15 33.376-50.645 72.031-73.127 109.069-31.492 51.879-63.672 102.86-98.237 152.772-68.828 99.385-142.862 196.735-197.136 305.21-6.088-5.892-12.171-11.792-18.16-17.79z m25.404 24.782c59.842-102.65 129.231-198.459 197.427-295.625 64.974-92.565 115.294-197.135 188.142-283.74 1.126-1.339 1.687-2.786 1.831-4.207 1.635-0.43 3.336-0.78 5.018-1.16-19.634 16.69-35.624 48.215-46.04 64.31-26.34 40.703-51.046 82.656-76.05 124.19-83.128 138.085-168.773 273.87-257.063 408.656-4.415-4.152-8.883-8.24-13.265-12.424z m20.338 19.055c90.224-115.617 165.132-243.907 240.978-369.1 26.795-44.23 53.75-88.35 80.816-132.413 11.977-19.494 24.314-38.761 37.43-57.509 8.692-12.417 22.466-35.817 37.902-41.473 3.831-1.407 5.25-4.407 5.01-7.286 0.822-0.038 1.594-0.12 2.428-0.147 10.52-0.37 20.719 0.217 30.648 1.51-71.994 99.4-137.397 203.33-203.687 306.572-68.84 107.22-141.255 211.537-213.73 316.259-5.928-5.48-11.895-10.92-17.795-16.413z m23.959 22.09c81.4-93.908 148.49-200.769 215.786-304.873 69.653-107.76 138.31-216.215 213.145-320.505 5.201 1.21 10.29 2.698 15.3 4.34-29.778 20.25-49.397 58.905-66.55 88.338-25.416 43.622-45.843 90.056-71.93 133.275-87.042 144.178-197.963 273.426-287.928 415.855-5.947-5.466-11.881-10.958-17.823-16.43z m25.31 23.306c19.742-25.769 39.211-51.797 58.545-77.94-17.673 28.475-33.69 57.774-47.241 88.187-3.79-3.412-7.56-6.828-11.305-10.247z m18.487 16.684c66.086-108.704 141.294-208.434 217.636-310.218 80.083-106.777 139.674-227.9 222.864-332.127 4.984 3.08 9.798 6.43 14.498 9.934-21.64 3.988-47.03 54.518-54.944 66.738-27.514 42.45-53.264 86.076-80.03 128.993-49.249 78.951-101.16 156.232-153.957 232.847-49.879 72.383-104.159 142.444-151.663 216.438-4.842-4.17-9.652-8.374-14.404-12.605z m70.733 56.084c-16.954-11.368-33.175-23.974-48.841-37.16 49.37-59.751 93.43-124.57 138.25-187.666 49.56-69.778 97.745-140.486 144.258-212.326 29.623-45.758 58.12-92.19 86.548-138.693 12.992-21.258 26.285-42.335 40.16-63.036 5.738-8.558 19.558-35.602 30.537-38.428 1.866-0.478 3-1.682 3.567-3.102a217.526 217.526 0 0 1 10.646 9.663c-42.799 37.767-71.808 90.212-100.244 138.813-36.086 61.672-77.766 119.942-116.787 179.775-39.537 60.62-74.788 123.23-119.119 180.577-35.657 46.127-73.722 92.196-95.518 146.868-2.66 6.673 8.463 11.284 11.57 4.877 27.797-57.353 67.748-106.105 106.68-156.12 38.954-50.034 70.203-105.162 104.553-158.376 37.34-57.849 78.044-113.802 113.327-172.922 32.2-53.94 61.991-107.475 106.242-152.349a238.159 238.159 0 0 1 7.492 8.752c-40.98 32.98-68.045 82.848-93.262 127.77-31.784 56.644-64.66 111.838-101.424 165.454-41.544 60.596-85.632 119.398-127.298 179.91-37.754 54.834-80.437 113.42-101.284 177.298-0.047 0.149-0.028 0.27-0.053 0.421z m20.825 12.951c-5.513-3.214-10.979-6.532-16.344-10.023 0.429-0.23 0.828-0.528 1.12-1.003 34.207-54.984 65.782-110.77 102.951-163.97 40.236-57.6 82.532-113.724 123.107-171.079 36.2-51.18 69.878-103.736 100.157-158.632C808.821 317.22 837.328 264.418 880.908 223c2.775 3.88 5.398 7.873 7.955 11.915-35.522 34.472-61.814 82.064-88.214 123.2-45.885 71.483-89.845 144.177-134.02 216.72C625.436 642.48 584.3 710.23 541.182 776.673c-15.204 23.425-30.768 46.726-47.573 69.04-3.906 5.186-16.466 24.668-24.685 28.615z m20.02 10.749c-4.409-2.177-8.783-4.415-13.097-6.796 43.348-24.04 169.961-238.99 181.464-257.643 47.54-77.093 94.353-154.645 142.46-231.386 29.968-47.801 59.103-99.206 96.456-141.969 5.045 9.051 9.487 18.468 13.468 28.08-10.897 12.275-19.111 27.549-27.975 41.252-17.157 26.522-34.252 53.081-51.438 79.586-44.425 68.52-89.36 136.716-135.013 204.428-43.872 65.063-88.122 129.936-134.536 193.22-15.923 21.71-31.907 43.428-49.146 64.12-3.526 4.241-15.537 22.11-22.644 27.108z m19.05 6.911c-1.94-0.799-3.9-1.585-5.745-2.495-1.43-0.704-2.78-0.894-4.082-0.908 4.062-2.55 8.762-6.416 13.889-11.225-2.089 5.12-3.535 10.072-4.063 14.628z m37.406-4.76a760.082 760.082 0 0 1-16.948 10.7c-0.958-0.459-2.028-0.745-3.208-0.725-2.014 0.034-4.042-0.25-6.063-0.631-0.371-0.16-0.752-0.298-1.13-0.46 2.901-9.42 10-19.694 13.955-26.652 11.983-21.07 26.144-40.92 40.04-60.754 37.169-53.055 77.146-104.187 116.975-155.253 81.435-104.4 165.308-207.887 237.642-318.94a251.674 251.674 0 0 1 3.452 37.702c-58.064 47.275-93.777 120.53-136.304 180.702-27.566 39.01-56.125 77.346-84.484 115.78-36.446 49.392-73.183 98.578-110.338 147.43-14.106 18.556-28.272 37.098-42.765 55.347-1.825 2.299-6.856 9.933-10.824 15.754z m46.101-38.107c37.313-46.69 73.399-94.352 109.285-142.141 33.076-44.04 65.939-88.246 98.158-132.919 43.465-60.275 80.22-125.47 130.574-180.25-0.719 10.302-2.042 20.507-3.873 30.612-53.45 65.053-106.254 130.78-157.95 197.226C716.081 687.982 663.53 755.82 623.3 829.88c-13.447 10.974-27.045 21.683-40.892 31.795 4.231-5.83 7.52-10.593 9.093-12.553zM783.164 674.61c-40.404 45.52-85.483 91.419-133.605 133.192 44.63-61.766 88.55-123.866 135.714-183.883 43.402-55.219 88.33-109.267 131.835-164.415-24.495 80.797-79.786 154.094-133.944 215.106z" fill="#6698cb" p-id="19215"></path></svg>