<?xml version="1.0" standalone="no"?><!DOCTYPE svg PUBLIC "-//W3C//DTD SVG 1.1//EN" "http://www.w3.org/Graphics/SVG/1.1/DTD/svg11.dtd"><svg t="1619085601710" class="icon" viewBox="0 0 1628 1024" version="1.1" xmlns="http://www.w3.org/2000/svg" p-id="2191" xmlns:xlink="http://www.w3.org/1999/xlink" width="317.96875" height="200"><defs><style type="text/css"></style></defs><path d="M1167.91 104.58l-3.557-3.556C1031.804-29.533 820.467-34.084 682.371 90.5 544.276-34.084 332.937-29.39 200.388 101.024 65.137 234.57 63.572 452.45 197.117 587.844l3.27 3.27L604.15 991.178c42.382 43.235 111.785 43.804 155.02 1.423l1.422-1.423 403.761-399.78c135.394-133.402 137.1-351.425 3.556-486.818z m-132.123 284.297c-9.956 0-18.204-8.106-18.204-18.204 0-65.563-53.19-118.754-118.753-118.754-4.836 0-9.53-1.99-12.942-5.404-3.414-3.413-5.405-8.107-5.405-12.942a18.148 18.148 0 0 1 18.205-18.204c85.758 0 155.303 69.545 155.303 155.304 0 9.955-8.107 18.204-18.204 18.204z" fill="#11A0F9" p-id="2192"></path></svg>