<?xml version="1.0" standalone="no"?><!DOCTYPE svg PUBLIC "-//W3C//DTD SVG 1.1//EN" "http://www.w3.org/Graphics/SVG/1.1/DTD/svg11.dtd"><svg t="1619085875317" class="icon" viewBox="0 0 1029 1024" version="1.1" xmlns="http://www.w3.org/2000/svg" p-id="18299" xmlns:xlink="http://www.w3.org/1999/xlink" width="200.9765625" height="200"><defs><style type="text/css"></style></defs><path d="M1029.314504 527.296518A496.688998 496.688998 0 1 1 532.898787 30.60752a496.552357 496.552357 0 0 1 496.415717 496.688998" fill="#5BA8AA" p-id="18300"></path><path d="M993.377996 496.688998A496.688998 496.688998 0 1 1 496.688998 0 496.552357 496.552357 0 0 1 993.377996 496.688998" fill="#7ACACC" p-id="18301"></path><path d="M743.462129 258.524232c-108.219446 0-196.079426 96.878267-196.079426 216.438892 0-119.560625-87.723339-216.438892-196.079425-216.438892S160.689481 355.265858 155.223852 474.963124c-10.794616 240.351017 392.158851 429.188485 392.158851 429.188485s402.953468-188.837468 392.295492-429.188485c-5.465629-119.423985-87.85998-216.438892-196.216066-216.438892" fill="#5BA8AA" p-id="18302"></path><path d="M706.569136 229.829682c-108.219446 0-196.079426 96.878267-196.079426 216.438892 0-119.560625-87.723339-216.438892-196.079425-216.438892S123.796488 326.84459 118.330859 446.268574c-10.794616 240.351017 392.158851 429.188485 392.158851 429.188485s403.090108-188.837468 392.158851-429.188485c-5.328988-119.423985-87.723339-216.438892-196.079425-216.438892" fill="#FFFFFF" p-id="18303"></path></svg>