<?xml version="1.0" standalone="no"?><!DOCTYPE svg PUBLIC "-//W3C//DTD SVG 1.1//EN" "http://www.w3.org/Graphics/SVG/1.1/DTD/svg11.dtd"><svg t="1619085622927" class="icon" viewBox="0 0 1628 1024" version="1.1" xmlns="http://www.w3.org/2000/svg" p-id="3555" xmlns:xlink="http://www.w3.org/1999/xlink" width="317.96875" height="200"><defs><style type="text/css"></style></defs><path d="M1306.576 104.58l-3.556-3.556C1170.471-29.533 959.133-34.084 821.037 90.5 682.942-34.084 471.604-29.39 339.055 101.024c-135.251 133.546-136.816 351.426-3.271 486.82l3.27 3.27 403.762 400.065c42.382 43.235 111.785 43.804 155.02 1.423l1.422-1.423 403.762-399.78c135.394-133.402 137.1-351.425 3.556-486.818z m-132.122 284.297c-9.956 0-18.205-8.106-18.205-18.204 0-65.563-53.19-118.754-118.753-118.754-4.836 0-9.529-1.99-12.942-5.404-3.414-3.413-5.405-8.107-5.405-12.942a18.148 18.148 0 0 1 18.205-18.204c85.758 0 155.304 69.545 155.304 155.304 0 9.955-8.107 18.204-18.204 18.204z" fill="#629BEA" p-id="3556"></path></svg>