<?xml version="1.0" standalone="no"?><!DOCTYPE svg PUBLIC "-//W3C//DTD SVG 1.1//EN" "http://www.w3.org/Graphics/SVG/1.1/DTD/svg11.dtd"><svg t="1618680263240" class="icon" viewBox="0 0 1024 1024" version="1.1" xmlns="http://www.w3.org/2000/svg" p-id="4258" xmlns:xlink="http://www.w3.org/1999/xlink" width="200" height="200"><defs><style type="text/css"></style></defs><path d="M925.7 512m-33.3 0a33.3 33.3 0 1 0 66.6 0 33.3 33.3 0 1 0-66.6 0Z" fill="#FE7598" p-id="4259"></path><path d="M593 650l-24.4 18.5c-30.3 23.1-41.6 31.7-54.2 44.1-2 2.1-4.7 3.2-7.6 3.2-3 0-5.7-1.2-7.7-3.2-9.5-9.4-18.2-16.1-35.7-29.2-11-8.5-24.5-18.9-43-33.4-48.8-38.3-115.8-91.1-115.8-166.6 0-73.3 56-112.8 108.7-112.8 35.5 0 68.5 16.6 93.4 46.8 24.9-30.3 58-46.8 93.6-46.8 52.6 0 108.5 39.2 108.5 112.1 0 79.4-75.3 136.7-115.8 167.3z" fill="#FE7598" p-id="4260"></path><path d="M654.8 370.7h9V716h-9z" fill="#FE7598" p-id="4261"></path><path d="M506.7 749.1c-11.9 0-22.9-4.6-31.2-13-7.6-7.5-14.8-13.1-32.1-26.1-11.5-8.8-25.1-19.3-43.7-33.9-51.1-40.2-128.5-100.9-128.5-192.7 0-94.9 73.2-146.1 142-146.1 34 0 66.2 11.7 93.4 33.5 27.2-21.8 59.5-33.5 93.7-33.5 68.7 0 141.8 51 141.8 145.4 0 96.3-87.1 162.1-129.1 193.8L588.6 695c-28.8 21.9-39.7 30.2-50.8 41.1-8.2 8.4-19.3 13-31.1 13z m-93.5-345.3c-30.3 0-75.4 21.2-75.4 79.5 0 59.5 57.1 104.3 103 140.4 18.4 14.5 31.8 24.8 42.7 33.2 9.4 7.1 16.6 12.5 23 17.7 10-8.4 22.2-17.8 41.8-32.7l24.5-18.6c35.9-27.1 102.7-77.5 102.7-140.7 0-57.8-45-78.8-75.2-78.8-25.8 0-49.3 12-67.9 34.6l-25.7 31.3-25.7-31.2c-18.7-22.7-42.2-34.7-67.8-34.7z" p-id="4262"></path><path d="M511.9 959H65V512C65 265.5 265.5 65 511.9 65c198.5 0 375.2 133.1 429.9 323.7 5.1 17.7-5.2 36.1-22.8 41.2-17.7 5.1-36.1-5.2-41.2-22.8-46.5-162.2-196.9-275.5-365.9-275.5-209.7 0-380.3 170.7-380.3 380.5v380.4h380.3c167.6 0 313.7-107.4 363.4-267.2 5.5-17.5 24.1-27.4 41.7-21.9s27.4 24.1 21.9 41.7C880.4 832.8 708.8 959 511.9 959z" p-id="4263"></path></svg>