<?xml version="1.0" standalone="no"?><!DOCTYPE svg PUBLIC "-//W3C//DTD SVG 1.1//EN" "http://www.w3.org/Graphics/SVG/1.1/DTD/svg11.dtd"><svg t="1619085853454" class="icon" viewBox="0 0 1092 1024" version="1.1" xmlns="http://www.w3.org/2000/svg" p-id="16907" xmlns:xlink="http://www.w3.org/1999/xlink" width="213.28125" height="200"><defs><style type="text/css"></style></defs><path d="M1092.266667 327.68C1092.266667 150.186667 948.906667 0 771.413333 0 689.493333 0 607.573333 34.133333 546.133333 102.4 484.693333 34.133333 402.773333 0 320.853333 0 143.36 0 0 150.186667 0 327.68v27.306667c0 34.133333 6.826667 68.266667 20.48 102.4v6.826666c95.573333 232.106667 471.04 498.346667 484.693333 512 6.826667 6.826667 20.48 13.653333 34.133334 13.653334s20.48-6.826667 34.133333-13.653334c13.653333-13.653333 334.506667-238.933333 457.386667-457.386666 6.826667-6.826667 6.826667-13.653333 13.653333-20.48v-6.826667l20.48-40.96c20.48-40.96 27.306667-68.266667 27.306667-102.4V341.333333v-13.653333z" fill="#FF5C5C" p-id="16908"></path><path d="M935.253333 348.16c-13.653333-75.093333-40.96-129.706667-81.92-157.013333-40.96-27.306667-95.573333-34.133333-170.666666-20.48l-13.653334-68.266667c88.746667-20.48 163.84-6.826667 218.453334 34.133333 54.613333 40.96 95.573333 109.226667 109.226666 197.973334l-61.44 13.653333z" fill="#FFFFFF" p-id="16909"></path></svg>