<?xml version="1.0" standalone="no"?><!DOCTYPE svg PUBLIC "-//W3C//DTD SVG 1.1//EN" "http://www.w3.org/Graphics/SVG/1.1/DTD/svg11.dtd"><svg t="1619752156185" class="icon" viewBox="0 0 1024 1024" version="1.1" xmlns="http://www.w3.org/2000/svg" p-id="10372" xmlns:xlink="http://www.w3.org/1999/xlink" width="200" height="200"><defs><style type="text/css"></style></defs><path d="M981.333333 276.053333V981.333333a42.666667 42.666667 0 0 1-42.666666 42.666667H85.333333a42.666667 42.666667 0 0 1-42.666666-42.666667V42.666667a42.666667 42.666667 0 0 1 42.666666-42.666667h619.946667z" fill="#FE9843" p-id="10373"></path><path d="M705.28 233.386667V0L981.333333 276.053333H747.946667a42.666667 42.666667 0 0 1-42.666667-42.666666z" fill="#FDBF8A" p-id="10374"></path><path d="M341.333333 842.666667m0-26.666667l0-373.333333q0-26.666667 26.666667-26.666667l0 0q26.666667 0 26.666667 26.666667l0 373.333333q0 26.666667-26.666667 26.666667l0 0q-26.666667 0-26.666667-26.666667Z" fill="#FFFFFF" p-id="10375"></path><path d="M548.48 416h-180.48A26.666667 26.666667 0 0 0 341.333333 442.666667v202.666666a26.666667 26.666667 0 0 0 26.666667 26.666667H554.666667a128 128 0 0 0 128-123.946667 132.906667 132.906667 0 0 0-134.186667-132.053333z m55.893333 188.373333a85.333333 85.333333 0 0 1-60.373333 24.96h-122.666667a26.666667 26.666667 0 0 1-26.666666-26.666666v-117.333334a26.666667 26.666667 0 0 1 26.666666-26.666666h117.12a89.173333 89.173333 0 0 1 90.666667 90.24 85.333333 85.333333 0 0 1-24.746667 55.466666z" fill="#FFFFFF" p-id="10376"></path></svg>