<?xml version="1.0" standalone="no"?><!DOCTYPE svg PUBLIC "-//W3C//DTD SVG 1.1//EN" "http://www.w3.org/Graphics/SVG/1.1/DTD/svg11.dtd"><svg t="1618673660396" class="icon" viewBox="0 0 1024 1024" version="1.1" xmlns="http://www.w3.org/2000/svg" p-id="4355" xmlns:xlink="http://www.w3.org/1999/xlink" width="200" height="200"><defs><style type="text/css"></style></defs><path d="M512 959c-114.5 0-229-43.6-316.2-130.7-174.4-174.3-174.4-458 0-632.3C298.5 93.2 445.5 46.7 588.8 71.6c14.3 2.5 23.9 16.1 21.4 30.4-2.5 14.3-16.1 23.9-30.4 21.4-126.5-22-256.2 19.1-346.9 109.7-153.9 153.8-153.9 404.2 0 558 76.9 76.9 178 115.4 279.1 115.4 101.1 0 202.1-38.5 279.1-115.4 153.9-153.9 153.9-404.2 0-558-15.4-15.4-32.1-29.5-49.6-42.1-11.8-8.4-14.5-24.9-6.1-36.6 8.4-11.8 24.9-14.5 36.7-6.1 19.8 14.2 38.7 30.2 56.1 47.6 174.4 174.3 174.4 458 0 632.3C741 915.4 626.5 959 512 959z" p-id="4356"></path><path d="M646.9 124.4a26.3 26.3 0 1 0 52.6 0 26.3 26.3 0 1 0-52.6 0Z" p-id="4357"></path><path d="M293.4 549.7c-18.3 44.8-21.4 87-6.9 94.6 10.1 5.7 26.5-6.9 41.6-29.6 5.7 25.2 20.8 47.3 41.6 65.6-22.1 8.2-36.6 22.1-36.6 37.2 0 25.2 39.1 46 87.1 46 43.5 0 79.5-16.4 86.4-38.5h10.1c6.9 22.1 42.9 38.5 86.4 38.5 48.6 0 87.1-20.2 87.1-46 0-15.1-14.5-29-36.6-37.2 20.8-18.3 36-40.4 41.6-65.6 15.1 22.7 30.9 35.3 41.6 29.6 15.1-7.6 12-50.5-6.9-94.6-14.5-34.7-34.1-60.5-49.2-66.2 0-1.9 0.6-4.4 0.6-6.9 0-13.2-3.8-25.9-10.1-35.9v-2.5c0-6.3-1.3-12-3.8-17-3.8-90.8-61.8-162.7-155.8-162.7-94 0-152 71.9-155.8 162.7-2.5 5-3.8 10.7-3.8 17v2.5c-6.3 10.1-10.1 22.7-10.1 35.9v6.9c-13.8 5.6-34 30.9-48.5 66.2z m0 0" fill="#589CFD" p-id="4358"></path></svg>