<?xml version="1.0" standalone="no"?><!DOCTYPE svg PUBLIC "-//W3C//DTD SVG 1.1//EN" "http://www.w3.org/Graphics/SVG/1.1/DTD/svg11.dtd"><svg t="1619760050724" class="icon" viewBox="0 0 1024 1024" version="1.1" xmlns="http://www.w3.org/2000/svg" p-id="11302" xmlns:xlink="http://www.w3.org/1999/xlink" width="200" height="200"><defs><style type="text/css"></style></defs><path d="M981.333333 276.053333V981.333333a42.666667 42.666667 0 0 1-42.666666 42.666667H85.333333a42.666667 42.666667 0 0 1-42.666666-42.666667V42.666667a42.666667 42.666667 0 0 1 42.666666-42.666667h619.946667z" fill="#B9C9D5" p-id="11303"></path><path d="M705.28 233.386667V0L981.333333 276.053333H747.946667a42.666667 42.666667 0 0 1-42.666667-42.666666z" fill="#D6E4F0" p-id="11304"></path><path d="M282.453333 832a168.32 168.32 0 0 1-74.453333-221.866667 161.493333 161.493333 0 0 1 102.186667-87.893333c18.773333-97.493333 101.973333-151.04 201.813333-151.04s183.04 53.546667 201.813333 151.04A167.68 167.68 0 0 1 741.76 832a22.4 22.4 0 0 1-30.293333-11.306667 24.106667 24.106667 0 0 1 10.666666-31.573333 120.32 120.32 0 0 0 52.906667-158.08 114.133333 114.133333 0 0 0-102.826667-66.56c0-91.306667-71.68-145.28-160-145.28s-160 53.973333-160 145.28A116.266667 116.266667 0 0 0 237.653333 682.666667a118.826667 118.826667 0 0 0 65.28 106.666666 24.106667 24.106667 0 0 1 10.24 31.786667 22.826667 22.826667 0 0 1-30.72 10.453333z" fill="#FFFFFF" p-id="11305"></path><path d="M489.173333 775.466667c2.346667-56.533333 68.48-90.026667 68.48-115.84a45.653333 45.653333 0 1 0-91.306666 0 23.04 23.04 0 1 1-45.866667 0 91.52 91.52 0 1 1 183.04 0c0 52.266667-69.12 65.28-68.48 118.186666a22.826667 22.826667 0 1 1-45.653333 0z" fill="#FFFFFF" p-id="11306"></path><path d="M512 856.96m-23.466667 0a23.466667 23.466667 0 1 0 46.933334 0 23.466667 23.466667 0 1 0-46.933334 0Z" fill="#FFFFFF" p-id="11307"></path></svg>