<?xml version="1.0" standalone="no"?><!DOCTYPE svg PUBLIC "-//W3C//DTD SVG 1.1//EN" "http://www.w3.org/Graphics/SVG/1.1/DTD/svg11.dtd"><svg t="1618673655875" class="icon" viewBox="0 0 1024 1024" version="1.1" xmlns="http://www.w3.org/2000/svg" p-id="4203" xmlns:xlink="http://www.w3.org/1999/xlink" width="200" height="200"><defs><style type="text/css"></style></defs><path d="M512 959c-114.5 0-229-43.6-316.2-130.7-174.4-174.3-174.4-458 0-632.3C298.5 93.2 445.5 46.7 588.8 71.6c14.3 2.5 23.9 16.1 21.4 30.4-2.5 14.3-16.1 23.9-30.4 21.4-126.5-22-256.2 19.1-346.9 109.7-153.9 153.8-153.9 404.2 0 558s404.3 153.8 558.2 0 153.9-404.2 0-558c-15.4-15.4-32.1-29.5-49.6-42.1-11.8-8.5-14.5-24.9-6.1-36.6 8.4-11.8 24.9-14.5 36.7-6.1 19.8 14.2 38.7 30.2 56.1 47.6 174.4 174.3 174.4 458 0 632.3C741 915.4 626.5 959 512 959z" p-id="4204"></path><path d="M646.2 123.1a26.3 26.3 0 1 0 52.6 0 26.3 26.3 0 1 0-52.6 0Z" p-id="4205"></path><path d="M625.6 423.7c-103.6 0-187.7 69.7-187.7 155.5 0 14.1 2.3 27.7 6.5 40.7-4.6 0.2-9.2 0.4-13.8 0.4-22.8 0-44.7-3.1-65.2-8.7-1.1-0.3-3.5-1-3.5-1l-61 30.7c-5 2.5-10.6-2.2-8.9-7.6l15.3-47.3s-1.2-0.8-1.9-1.2c-49.1-31.1-80.9-80.2-80.9-135.4 0-94.1 92.2-170.4 206-170.4 103 0 188.4 62.7 203.6 144.4-2.7 0-5.6-0.1-8.5-0.1zM503.1 365c-16 0-28.9 12.4-28.9 27.7 0 15.3 13 27.7 28.9 27.7S532 408 532 392.7c-0.1-15.3-13-27.7-28.9-27.7z m-143.4 55.4c16 0 28.9-12.4 28.9-27.7 0-15.3-13-27.7-28.9-27.7-16 0-28.9 12.3-28.9 27.7-0.1 15.3 12.9 27.7 28.9 27.7z" fill="#4CEAC2" p-id="4206"></path><path d="M799.3 580c0-79.5-77.9-144-174-144s-174.1 64.5-174.1 144 77.9 144 174.1 144c19.2 0 37.8-2.6 55-7.4 1-0.3 3-0.8 3-0.8l56.4 28.4c2.4 1.2 5.1-1.1 4.3-3.6l-14.6-45.2s1-0.7 1.6-1c41.5-26.3 68.3-67.7 68.3-114.4z m-228.5-16.9c-13.5 0-24.4-10.5-24.4-23.5 0-12.9 11-23.4 24.4-23.4 13.5 0 24.4 10.5 24.4 23.4 0.1 12.9-10.8 23.5-24.4 23.5z m121.2 0c-13.5 0-24.4-10.5-24.4-23.5 0-12.9 10.9-23.4 24.4-23.4 13.5 0 24.4 10.5 24.4 23.4 0 12.9-10.9 23.5-24.4 23.5z" fill="#4CEAC2" p-id="4207"></path></svg>