<?xml version="1.0" standalone="no"?><!DOCTYPE svg PUBLIC "-//W3C//DTD SVG 1.1//EN" "http://www.w3.org/Graphics/SVG/1.1/DTD/svg11.dtd"><svg t="1619752171586" class="icon" viewBox="0 0 1024 1024" version="1.1" xmlns="http://www.w3.org/2000/svg" p-id="10835" xmlns:xlink="http://www.w3.org/1999/xlink" width="200" height="200"><defs><style type="text/css"></style></defs><path d="M981.333333 276.053333V981.333333a42.666667 42.666667 0 0 1-42.666666 42.666667H85.333333a42.666667 42.666667 0 0 1-42.666666-42.666667V42.666667a42.666667 42.666667 0 0 1 42.666666-42.666667h619.946667z" fill="#63C320" p-id="10836"></path><path d="M705.28 233.386667V0L981.333333 276.053333H747.946667a42.666667 42.666667 0 0 1-42.666667-42.666666z" fill="#9FDB76" p-id="10837"></path><path d="M687.092982 843.138039m-18.670985-19.039575l-351.014533-357.944003q-18.670986-19.039575 0.368589-37.71056l0 0q19.039575-18.670986 37.710561 0.368589l351.014532 357.944003q18.670986 19.039575-0.368589 37.71056l0 0q-19.039575 18.670986-37.71056-0.368589Z" fill="#FFFFFF" p-id="10838"></path><path d="M298.702057 805.667148m18.670986-19.039574l351.014532-357.944003q18.670986-19.039575 37.710561-0.368589l0 0q19.039575 18.670986 0.368588 37.71056l-351.014532 357.944003q-18.670986 19.039575-37.71056 0.368589l0 0q-19.039575-18.670986-0.368589-37.71056Z" fill="#FFFFFF" p-id="10839"></path></svg>