<?xml version="1.0" standalone="no"?><!DOCTYPE svg PUBLIC "-//W3C//DTD SVG 1.1//EN" "http://www.w3.org/Graphics/SVG/1.1/DTD/svg11.dtd"><svg t="1618673744772" class="icon" viewBox="0 0 1024 1024" version="1.1" xmlns="http://www.w3.org/2000/svg" p-id="13286" xmlns:xlink="http://www.w3.org/1999/xlink" width="200" height="200"><defs><style type="text/css"></style></defs><path d="M512 512m-509.72444445 0a509.72444445 509.72444445 0 1 0 1019.4488889 0 509.72444445 509.72444445 0 1 0-1019.4488889 0Z" fill="#E6F1FF" p-id="13287"></path><path d="M700.07466667 703.14666667H323.92533333c-25.14488889 0-45.51111111-20.36622222-45.51111111-45.51111112V366.36444445c0-25.14488889 20.36622222-45.51111111 45.51111111-45.51111112h376.26311112c25.14488889 0 45.51111111 20.36622222 45.5111111 45.51111112v291.2711111c-0.11377778 25.14488889-20.48 45.51111111-45.62488888 45.51111112z" fill="#71AEFD" p-id="13288"></path><path d="M521.67111111 495.72977778c-6.144 0-12.288-1.36533333-17.97688889-4.20977778l-154.96533333-77.48266667c-4.55111111-2.27555555-6.37155555-7.73688889-4.096-12.17422222 2.27555555-4.55111111 7.73688889-6.37155555 12.17422222-4.096l154.96533334 77.48266667c6.59911111 3.29955555 14.44977778 3.072 20.82133333-0.56888889L666.73777778 397.88088889c4.43733333-2.50311111 9.89866667-1.024 12.40177777 3.41333333 2.50311111 4.32355555 1.024 9.89866667-3.41333333 12.40177778L541.58222222 490.38222222c-6.144 3.52711111-13.08444445 5.34755555-19.91111111 5.34755556z" fill="#A9D2FF" p-id="13289"></path></svg>